<?xml version="1.0" encoding="UTF-8" standalone="no"?>
<!-- Created with Inkscape (http://www.inkscape.org/) -->

<svg
   xmlns:dc="http://purl.org/dc/elements/1.1/"
   xmlns:cc="http://creativecommons.org/ns#"
   xmlns:rdf="http://www.w3.org/1999/02/22-rdf-syntax-ns#"
   xmlns:svg="http://www.w3.org/2000/svg"
   xmlns="http://www.w3.org/2000/svg"
   xmlns:sodipodi="http://sodipodi.sourceforge.net/DTD/sodipodi-0.dtd"
   xmlns:inkscape="http://www.inkscape.org/namespaces/inkscape"
   id="svg2"
   version="1.1"
   inkscape:version="0.91 r13725"
   width="343.75"
   height="172.5"
   viewBox="0 0 343.75 172.5"
   sodipodi:docname="testelogo.svg">
  <metadata
     id="metadata8">
    <rdf:RDF>
      <cc:Work
         rdf:about="">
        <dc:format>image/svg+xml</dc:format>
        <dc:type
           rdf:resource="http://purl.org/dc/dcmitype/StillImage" />
        <dc:title></dc:title>
      </cc:Work>
    </rdf:RDF>
  </metadata>
  <defs
     id="defs6" />
  <sodipodi:namedview
     pagecolor="#ffffff"
     bordercolor="#666666"
     borderopacity="1"
     objecttolerance="10"
     gridtolerance="10"
     guidetolerance="10"
     inkscape:pageopacity="0"
     inkscape:pageshadow="2"
     inkscape:window-width="1366"
     inkscape:window-height="715"
     id="namedview4"
     showgrid="false"
     inkscape:zoom="1.2450909"
     inkscape:cx="-23.291472"
     inkscape:cy="182.6285"
     inkscape:window-x="0"
     inkscape:window-y="27"
     inkscape:window-maximized="1"
     inkscape:current-layer="svg2" />
  <g
     id="g8070"
     transform="matrix(1.0526204,0,0,1.1024569,-20.525436,-16.743353)">
    <path
       style="fill:#f8d8a6"
       d="m 64.856066,137.69586 c -1.639591,-1.26727 -5.512323,-3.20402 -8.606073,-4.3039 -13.20915,-4.69603 -23.31489,-8.54623 -25.9375,-9.88196 -2.770272,-1.41094 -2.8125,-1.79526 -2.8125,-25.596224 0,-13.840965 0.490327,-24.163775 1.147766,-24.163775 4.908649,0 5.102234,0.876933 5.102234,23.112946 0,19.479693 0.214317,21.660823 2.1875,22.262473 1.203125,0.36685 7.739088,2.99024 14.524363,5.82976 6.785275,2.83952 12.524545,4.97508 12.753934,4.74568 0.22939,-0.22938 -5.603449,-3.4903 -12.961862,-7.24646 L 36.874993,115.625 36.53344,92.591554 C 36.336794,79.330272 36.691991,69.058002 37.370658,68.379336 38.926195,66.823799 63.098336,78.98822 68.251305,83.919757 l 3.876313,3.709742 1.999143,-3.051079 c 1.837325,-2.804113 27.580099,-17.078419 30.799809,-17.078419 0.96726,0 1.27632,7.164965 1.03791,24.0625 l -0.33949,24.062499 -13.749997,7.2592 c -17.015195,8.98303 -12.661372,8.08478 12.187497,-2.51444 l 4.6875,-1.99945 0,-20.907096 c 0,-16.979587 0.34924,-21.196943 1.85908,-22.450002 1.0225,-0.848595 2.71,-1.216373 3.75,-0.817286 1.59314,0.611343 1.89092,4.349426 1.89092,23.736788 0,17.107026 -0.40832,23.350056 -1.59142,24.331936 -1.56959,1.30264 -11.8844,5.38559 -26.533577,10.50285 -4.125,1.44096 -8.841483,3.65775 -10.481074,4.92621 -3.804241,2.94313 -8.98171,2.944 -12.787853,0.002 z m 9.940417,-11.85423 c 1.50275,-1.59961 7.780843,-5.39648 13.951318,-8.4375 l 11.219044,-5.52913 0.01657,-17.773575 0.01657,-17.773576 -10.9375,5.66515 c -6.015625,3.115833 -12.469803,7.127095 -14.342617,8.913915 l -3.405116,3.248763 -3.22234,-3.22234 C 64.846278,87.687195 46.451645,77.500001 43.836349,77.500001 c -0.99062,0 -1.304004,5.029905 -1.059131,16.99942 l 0.347775,16.999419 11.875,6.15589 c 6.53125,3.38574 12.646733,7.26725 13.589965,8.62558 2.189366,3.15287 2.878178,3.10418 6.206525,-0.43868 z M 64.727938,118.5918 c -1.868382,-1.37027 -6.930882,-4.36977 -11.25,-6.66557 -8.311294,-4.41781 -11.697654,-9.25534 -5.366583,-7.66635 4.498813,1.12913 16.008306,7.69551 18.697941,10.66753 1.187907,1.31262 1.969899,3.23465 1.737763,4.27118 -0.353905,1.58024 -0.970675,1.48225 -3.819121,-0.60679 z m 9.022055,1.2138 c 0,-3.59075 4.186443,-7.49396 12.561295,-11.71147 10.001708,-5.03678 11.188705,-5.23242 11.188705,-1.84413 0,1.375 -0.543138,2.5 -1.206972,2.5 -1.304603,0 -15.141718,7.59055 -19.730528,10.82346 -2.29962,1.62014 -2.8125,1.66247 -2.8125,0.23214 z m -8.75,-11.2887 c -1.71875,-1.40227 -6.921875,-4.46179 -11.5625,-6.79895 -6.160957,-3.102843 -8.4375,-4.91967 -8.4375,-6.733664 0,-1.366356 0.25031,-2.484285 0.556243,-2.484285 0.305934,0 4.384059,1.92193 9.0625,4.270954 9.240189,4.639455 14.603063,9.412945 13.931888,12.400765 -0.354606,1.57857 -0.947096,1.4693 -3.550631,-0.65482 z m 8.75,0.52702 c 0,-3.20266 5.403406,-7.81566 14.705771,-12.55463 4.306924,-2.194109 8.103799,-3.989289 8.4375,-3.989289 0.333701,0 0.606729,1.115524 0.606729,2.478943 0,1.736285 -1.966037,3.471836 -6.5625,5.793156 -3.609375,1.82281 -8.953125,4.95306 -11.875,6.95611 -4.708843,3.22807 -5.3125,3.37757 -5.3125,1.31571 z M 65.84226,98.99008 c -1.12486,-1.242958 -6.268476,-4.477333 -11.430256,-7.1875 -6.20209,-3.256379 -9.389626,-5.669475 -9.398534,-7.115079 -0.01731,-2.809567 -0.278786,-2.857702 9.28032,1.708421 9.567921,4.570334 14.456203,8.727612 14.456203,12.294393 0,3.134245 -0.313329,3.166545 -2.907733,0.299765 z m 7.907733,0.216726 c 0,-4.3666 4.5915,-8.1804 16.686621,-13.860267 7.30986,-3.432712 7.063379,-3.416404 7.063379,-0.467333 0,1.698006 -2.59472,3.693663 -9.0625,6.970168 -4.984375,2.525028 -10.328125,5.771187 -11.875,7.213687 -2.75623,2.570249 -2.8125,2.573129 -2.8125,0.143745 z M 176.69818,109.47529 c -4.75604,-2.10804 -7.24586,-8.40975 -5.98281,-15.142386 1.15001,-6.130148 8.09926,-13.082903 13.07629,-13.082903 3.49306,0 3.70833,-0.290262 3.70833,-5 0,-3.482957 0.53788,-5 1.77277,-5 0.97502,0 2.66252,-0.341431 3.75,-0.758736 1.75267,-0.672564 1.97723,1.533682 1.97723,19.425637 l 0,20.184378 -4.6875,-0.15006 c -2.57812,-0.0825 -5.8125,0.16825 -7.1875,0.55727 -1.375,0.38902 -4.26706,-0.0759 -6.42681,-1.0332 z m 10.80181,-13.091553 c 0,-8.91261 -1.2712,-11.006477 -5.65972,-9.322443 -7.089,2.720302 -4.87851,17.938706 2.6056,17.938706 2.94345,0 3.05412,-0.31224 3.05412,-8.616263 z m 45,12.707513 c -9.14705,-4.63363 -9.60623,-19.790541 -0.76508,-25.254668 8.30917,-5.135358 17.01975,-1.853548 19.49683,7.345667 3.36253,12.487451 -7.99622,23.347301 -18.73175,17.909001 z m 11.20603,-6.50907 c 4.62789,-8.647286 -4.35699,-20.973958 -9.53151,-13.076631 -2.17034,3.312365 -1.68333,10.596521 0.91805,13.730991 2.11391,2.5471 7.10292,2.16809 8.61346,-0.65436 z m 41.29397,7.08945 c -6.48557,-3.33973 -4.36875,-10.430328 4.33533,-14.521725 3.11557,-1.464491 5.66467,-3.153454 5.66467,-3.753251 0,-2.392583 -3.88317,-4.182519 -7.5031,-3.458533 -4.01041,0.802083 -4.60945,-0.240782 -2.45292,-4.270296 0.92642,-1.731034 2.61299,-2.412386 5.9375,-2.398683 8.38771,0.03458 10.26852,3.343015 10.26852,18.062839 l 0,10.746329 -4.0625,-0.14287 c -2.23437,-0.0786 -5.1875,0.19198 -6.5625,0.60126 -1.375,0.40928 -3.90625,0.02 -5.625,-0.86507 z m 10,-7.79663 c 0,-2.479851 -0.62991,-3.124999 -3.05122,-3.124999 -1.67818,0 -3.41553,0.589436 -3.86078,1.309859 -1.45212,2.3496 0.51315,4.94014 3.74778,4.94014 2.54184,0 3.16422,-0.61467 3.16422,-3.125 z M 137.70989,90.347779 c 5.27169,-10.809908 10.08528,-19.82117 10.69687,-20.02503 0.61157,-0.203859 3.24633,4.28075 5.85501,9.9658 2.60869,5.685048 6.94337,14.728543 9.63264,20.096651 l 4.88958,9.76021 -5.28471,-0.38521 c -4.78611,-0.34886 -5.35855,-0.74928 -6.06752,-4.24431 -1.24162,-6.120844 -2.13639,-6.765889 -9.38534,-6.765889 l -6.80603,0 -1.50445,5.624999 c -1.46852,5.49065 -1.62515,5.62503 -6.5577,5.62608 l -5.05325,0.001 9.5849,-19.654371 z m 13.5401,0.983597 c 0,-0.642745 -0.60488,-2.75212 -1.34418,-4.6875 l -1.34418,-3.518875 -1.73652,3.125 c -2.55153,4.591665 -2.20663,6.25 1.29988,6.25 1.71875,0 3.125,-0.525881 3.125,-1.168625 z m 48.33537,-0.328334 c 0.20231,-18.269251 0.31452,-19.035823 2.92795,-20.002593 4.09098,-1.513354 4.62952,-0.516997 3.99116,7.383967 -0.57519,7.118976 -0.54385,7.203845 1.86617,5.053085 3.30898,-2.952992 8.22513,-2.757971 11.12312,0.44125 1.90373,2.101613 2.4681,4.984194 2.8144,14.375 L 222.74132,110 l -4.18316,0.001 -4.18317,10e-4 0,-10.31373 0,-10.313729 -4.19442,-0.401537 -4.19443,-0.401538 0.44443,10.714219 0.44442,10.714215 -3.75,-1e-5 -3.75,-10e-6 0.21037,-18.997298 z m 56.08676,4.941284 c 0.0542,-12.766205 0.27664,-14.097439 2.4237,-14.510925 1.30016,-0.250389 3.08876,0.536008 3.97466,1.747546 1.47605,2.018634 1.67703,2.029999 2.40385,0.135925 0.52063,-1.356711 2.2405,-2.066871 5.00559,-2.066871 6.0658,0 7.67161,3.332819 8.28125,17.1875 L 278.26993,110 l -3.86855,0 -3.86854,0 0.0461,-10.312499 0.0461,-10.3125 -4.15678,-0.39873 -4.15679,-0.39873 0.40679,10.714148 0.40678,10.714151 -3.75632,-0.003 -3.75641,-0.003 0.0598,-14.055674 z m 50.57787,-0.319325 0,-14.375 3.75,0 3.75,0 0,14.375 0,14.374999 -3.75,0 -3.75,0 0,-14.374999 z m -0.0369,-17.544456 c -2.27123,-2.736633 -0.0782,-6.205544 3.92311,-6.205544 2.48751,0 2.98876,0.628915 2.98876,3.75 0,2.850001 -0.62625,3.839478 -2.60938,4.122821 -1.43515,0.205052 -3.37129,-0.545223 -4.30252,-1.667277 z M 55.057581,70.297989 52.133636,67.930321 56.931485,64.965087 c 8.67213,-5.359671 22.954104,-4.739922 30.568508,1.326484 3.094865,2.465684 3.100892,2.508326 0.625,4.422074 -1.375,1.06281 -3.625,1.657412 -5,1.321339 -1.375,-0.336075 -4.609375,-1.153443 -7.1875,-1.816375 C 71.661046,69.118976 68.332738,69.47699 60.55326,71.87344 58.927196,72.374345 56.906344,71.79503 55.057581,70.297989 Z M 40.312493,64.17215 c -2.890253,-1.166243 -1.597485,-3.928888 4.245066,-9.071706 5.780117,-5.087864 13.44955,-8.222303 23.631672,-9.658087 7.320372,-1.032248 20.024178,2.58156 27.807633,7.910342 8.160686,5.587042 10.026816,8.511482 6.601196,10.344818 -3.564075,1.907435 -4.96347,1.637975 -8.960625,-1.72541 -4.761221,-4.006303 -16.257326,-8.222106 -22.420925,-8.222106 -6.106339,0 -15.754995,3.56733 -21.499454,7.948843 -4.227852,3.22474 -6.23448,3.752463 -9.404563,2.473306 z m -13.75,-6.947768 c -1.546875,-0.746028 -2.8125,-2.05362 -2.8125,-2.905757 0,-2.936583 15.477673,-15.870711 23.667172,-19.777795 7.841745,-3.741176 8.904728,-3.915829 23.832828,-3.915829 14.346688,0 16.211536,0.27489 22.79433,3.360026 8.177877,3.832699 14.771127,8.504733 20.642317,14.627323 4.87906,5.087981 5.09765,7.219989 0.93474,9.116739 -2.86398,1.304918 -3.6219,0.925132 -8.9607,-4.490169 -3.20765,-3.253611 -9.252905,-7.69015 -13.433892,-9.858975 -7.170018,-3.719339 -8.386258,-3.945068 -21.412898,-3.97413 -13.209146,-0.02947 -14.169524,0.151019 -22.034634,4.141112 -4.522941,2.294559 -10.659437,6.653934 -13.636657,9.6875 -5.944763,6.057272 -5.595333,5.91174 -9.580106,3.989955 z"
       id="path8084"
       inkscape:connector-curvature="0" />
    <path
       style="fill:#dca39d"
       d="m 66.106066,137.76108 c -1.639591,-1.2314 -10.293573,-4.96405 -19.231073,-8.29478 -8.9375,-3.33072 -16.953125,-6.61083 -17.8125,-7.28914 -1.148254,-0.90631 -1.5625,-7.30399 -1.5625,-24.131444 0,-23.071207 0.598696,-26.179769 4.429756,-23.000271 1.46129,1.212762 1.820244,5.645952 1.820244,22.480539 l 0,20.969866 13.4375,5.60177 c 7.390625,3.08098 14.84375,5.99339 16.5625,6.47202 l 3.125,0.87025 -3.312134,-2.28244 c -1.821674,-1.25535 -8.431049,-4.78879 -14.6875,-7.85209 l -11.375366,-5.56964 0,-24.117858 c 0,-13.264823 0.259013,-24.117861 0.575585,-24.117861 2.39816,0 28.148433,14.627186 30.412976,17.275788 l 2.863562,3.349212 2.761438,-3.305767 c 3.763495,-4.505348 30.724086,-17.94679 31.570926,-15.739967 0.34397,0.896379 0.4713,11.667712 0.28296,23.936295 l -0.34245,22.306518 -13.124997,6.82233 c -20.738934,10.78003 -19.601277,11.08554 5,1.34276 l 10.624997,-4.20779 0.625,-21.563066 c 0.62176,-21.45126 1.15664,-23.862322 5.3125,-23.947172 0.51563,-0.0105 0.9375,10.908723 0.9375,24.265002 l 0,24.284146 -9.6875,3.69756 c -5.328122,2.03366 -13.343747,5.00708 -17.812497,6.60758 -4.46875,1.6005 -9.215442,3.91497 -10.548202,5.14328 -3.087426,2.84545 -7.052308,2.8434 -10.845725,-0.006 z m 8.01406,-10.67253 c 1.049213,-1.6013 7.301405,-5.62433 13.893763,-8.94006 l 11.986104,-6.0286 0,-17.947489 0,-17.947489 -10.9375,5.494049 c -6.015625,3.021728 -12.46341,7.020613 -14.328413,8.886411 L 71.343169,93.997734 68.48408,90.768142 C 65.925393,87.877879 52.711924,80.253282 45.312493,77.397392 l -2.8125,-1.085513 0,17.811955 0,17.811956 11.77177,5.84761 c 6.474472,3.21619 12.802597,7.26296 14.0625,8.99283 2.847263,3.90933 3.409131,3.93967 5.785863,0.31232 z m -8.495133,-9.10546 c -1.375,-1.06558 -6.296875,-3.86726 -10.9375,-6.22597 -4.76751,-2.42319 -8.4375,-5.10509 -8.4375,-6.16583 0,-1.45306 1.765445,-0.99408 7.8125,2.03108 8.39971,4.20212 11.73657,6.69941 13.59726,10.17614 1.424116,2.66099 1.188361,2.68237 -2.03476,0.18458 z m 9.317305,-0.37528 c 1.629926,-3.04555 3.239413,-4.20841 12.840272,-9.27716 4.624169,-2.44131 8.720218,-3.93289 9.102333,-3.31461 0.746071,1.20716 -0.201653,1.85926 -14.06186,9.67549 -6.180589,3.48544 -8.680434,4.41051 -7.880745,2.91628 z m -8.464104,-9.20784 c -0.73035,-0.88002 -5.580475,-3.81723 -10.778056,-6.52713 -5.19758,-2.709904 -9.450145,-5.674614 -9.450145,-6.588246 0,-2.713643 19.390558,8.008556 21.043403,11.636156 1.542933,3.38637 1.233533,3.94779 -0.815202,1.47922 z m 8.337369,-0.50054 c 0.786138,-1.49907 2.977363,-3.81755 4.869387,-5.15219 6.097136,-4.300944 16.411805,-9.006453 17.144345,-7.82118 0.816321,1.320837 0.422191,1.595499 -10.566674,7.36368 -4.475696,2.34934 -9.203852,5.18587 -10.507015,6.3034 -2.251446,1.93072 -2.298238,1.89619 -0.940043,-0.69371 z M 65.011921,97.261147 c -1.71219,-1.388008 -5.64969,-3.82597 -8.75,-5.41769 -7.361121,-3.779248 -10.836398,-6.435652 -9.789351,-7.4827 1.334198,-1.334198 18.539816,8.246118 20.682523,11.516302 2.568286,3.9197 1.686846,4.488941 -2.143172,1.384088 z m 8.777825,1.864968 C 73.912544,96.03377 87.070661,86.79123 94.687493,84.447099 c 5.819087,-1.790867 2.581377,1.882462 -5,5.672718 -4.296875,2.148193 -9.640625,5.278667 -11.875,6.956609 -2.234375,1.677941 -4.04461,2.600301 -4.022747,2.049689 z m 55.194914,10.019705 c 0.2742,-0.56145 4.52312,-9.317694 9.44205,-19.458319 4.91892,-10.140625 9.39457,-18.427587 9.94588,-18.415471 0.55133,0.01212 5.23828,8.730865 10.41544,19.375 L 168.20108,110 l -4.50609,0 c -4.28428,0 -4.59657,-0.29224 -6.34468,-5.9375 l -1.8386,-5.937499 -7.07533,-0.373222 -7.07532,-0.373224 -1.74154,5.998225 c -1.64433,5.66345 -2.00361,6.02031 -6.43746,6.39404 -2.58278,0.21771 -4.4716,-0.0636 -4.1974,-0.625 z m 22.19731,-20.083319 c -0.69089,-1.890625 -1.56516,-4.28125 -1.94286,-5.3125 -0.48802,-1.332502 -1.36629,-0.609172 -3.03552,2.5 -3.18636,5.93505 -3.09108,6.25 1.89047,6.25 4.21016,0 4.30533,-0.10595 3.08791,-3.4375 z m 22.7386,17.994069 c -2.03436,-2.16548 -2.67058,-4.42193 -2.67058,-9.471691 0,-6.033682 0.43582,-7.064812 4.85294,-11.481937 3.107,-3.106995 6.00299,-4.852941 8.04955,-4.852941 2.79155,0 3.24576,-0.593971 3.58455,-4.6875 0.32639,-3.943459 0.88399,-4.745495 3.51296,-5.052872 l 3.125,-0.365374 0,19.27398 0,19.273975 -8.89192,0.10353 c -7.70874,0.0898 -9.24726,-0.27473 -11.5625,-2.73917 z m 13.57942,-11.431569 0,-9.375 -3.70602,0 c -4.39426,0 -6.29398,2.829661 -6.29398,9.375 0,6.545339 1.89972,9.374999 6.29398,9.374999 l 3.70602,0 0,-9.374999 z m 12.77994,-4.6875 0.34506,-19.0625 3.125,-0.366915 c 3.05013,-0.358122 3.11459,-0.198274 2.69052,6.671249 l -0.4345,7.038164 3.23788,-2.121545 c 3.78899,-2.482639 8.83537,-1.684888 10.63703,1.681546 0.66169,1.236389 1.32726,7.276622 1.47904,13.422741 l 0.27597,11.174759 -3.31797,0.39553 -3.31797,0.39553 0,-10.63426 c 0,-11.292698 -0.72138,-12.749223 -5.69605,-11.500663 -2.93828,0.737464 -3.05395,1.167999 -3.05395,11.367679 0,10.503744 -0.029,10.601184 -3.15756,10.601184 l -3.15755,0 0.34505,-19.062499 z m 29.26551,15.767049 c -2.75297,-2.75298 -3.29545,-4.41494 -3.29545,-10.096158 0,-5.822236 0.51649,-7.317192 3.58984,-10.39053 1.9744,-1.974407 5.15293,-3.982146 7.06339,-4.461641 4.36292,-1.095022 10.99617,2.257659 12.94974,6.54525 3.08995,6.781701 0.56671,17.548009 -4.78373,20.411479 -4.65405,2.49077 -11.97127,1.5441 -15.52379,-2.0084 z m 13.16863,-2.52328 c 3.30315,-2.98932 3.06395,-11.316975 -0.43196,-15.038205 -5.35079,-5.695653 -9.78212,-2.554518 -9.78212,6.934034 0,3.903508 0.71788,5.556131 3.29358,7.582181 3.96775,3.12103 4.04237,3.12665 6.9205,0.52199 z m 12.91092,-7.931269 0,-13.75 3.4375,0 c 1.89063,0 3.4375,0.64968 3.4375,1.443735 0,0.863803 0.91823,0.612746 2.28593,-0.625 3.32032,-3.004847 7.16189,-2.54005 10.12335,1.224839 2.17846,2.769466 2.59072,5.056964 2.59072,14.375 l 0,11.081425 -3.44676,0 -3.44677,0 0.3711,-9.6875 c 0.42911,-11.201848 -0.54569,-13.505643 -5.2184,-12.332868 -3.19173,0.801073 -3.25917,1.037364 -3.25917,11.419184 l 0,10.601184 -3.4375,0 -3.4375,0 0,-13.749999 z m 27.49579,11.692209 c -4.09341,-4.09341 -1.55651,-9.164105 6.18129,-12.355036 8.63766,-3.562022 6.74499,-10.146463 -2.41334,-8.395739 -3.67249,0.702042 -3.68971,0.678972 -1.71984,-2.303645 2.60555,-3.945091 8.41612,-4.558858 12.42724,-1.312683 2.75185,2.227042 3.06804,3.534639 3.45721,14.296995 l 0.42837,11.845768 -8.24508,0.0476 c -5.70572,0.0329 -8.82124,-0.52861 -10.11585,-1.82322 z m 11.87921,-6.06721 c 0,-2.638888 -0.58333,-3.124999 -3.75,-3.124999 -2.80302,0 -3.75,0.578704 -3.75,2.291669 0,3.03565 1.06838,3.95833 4.58334,3.95833 2.27778,0 2.91666,-0.68452 2.91666,-3.125 z m 11.87177,-5.625459 -0.003,-13.74954 3.12824,0 3.12823,0 0,13.75 0,13.749999 -3.125,-4.6e-4 -3.125,-4.6e-4 -0.004,-13.749539 z m -0.14172,-18.051524 c -0.38031,-0.99109 -0.49558,-2.819215 -0.25615,-4.0625 0.59195,-3.073735 6.45818,-3.084526 7.0497,-0.01296 0.85978,4.464472 -5.24006,8.123785 -6.79355,4.075467 z M 54.998424,69.373111 c -1.32021,-1.590756 -0.64702,-2.279719 4.415769,-4.519231 7.561897,-3.344986 16.053867,-3.369685 23.516975,-0.0684 10.003972,4.425232 5.649683,8.095394 -5.33987,4.500894 -5.861034,-1.917048 -6.808782,-1.921233 -12.513677,-0.05525 -7.577527,2.478482 -8.13358,2.486316 -10.079197,0.14199 z M 40.624993,62.989755 c -2.447767,-1.890398 -2.40444,-2.014334 2.073692,-5.931839 15.380819,-13.455256 38.314093,-14.471646 54.082146,-2.396891 7.198599,5.512492 8.042959,7.176336 4.581859,9.028662 -2.107747,1.128033 -3.554372,0.641739 -8.513457,-2.86186 -7.600729,-5.369923 -12.747303,-7.077826 -21.328245,-7.077826 -9.270589,0 -15.589127,2.087535 -21.416672,7.075698 -5.518995,4.724053 -6.017247,4.837801 -9.479323,2.164056 z M 27.77951,57.358772 c -1.388035,-0.513467 -2.897037,-1.537651 -3.35334,-2.275965 -1.588331,-2.569972 12.178836,-14.55553 22.513746,-19.60024 9.701253,-4.735405 10.258685,-4.849635 23.685077,-4.853553 11.617596,-0.0034 14.91313,0.462375 21.25,3.003311 7.983701,3.201275 13.675407,6.859787 20.415097,13.122406 6.34914,5.899715 7.03081,7.813566 3.58677,10.070189 -2.79405,1.830729 -3.17682,1.658306 -9.19402,-4.141504 C 86.793259,33.512409 55.819426,33.468595 36.171128,52.583679 31.58505,57.045299 29.75191,58.088414 27.77951,57.358776 Z"
       id="path8082"
       inkscape:connector-curvature="0" />
    <path
       style="fill:#eead54"
       d="M 66.20535,137.08154 C 64.478226,135.50719 54.256241,131.3316 36.562493,124.97272 l -7.8125,-2.8077 0,-23.686674 c 0,-18.3927 0.349218,-23.570727 1.5625,-23.167882 1.136823,0.377458 1.73277,6.420345 2.1875,22.181218 l 0.625,21.662428 17.87333,7.16793 c 9.830331,3.94237 17.66166,6.53294 17.402952,5.75681 -0.258709,-0.77612 -7.317331,-4.98 -15.68583,-9.34195 l -15.215452,-7.93082 0,-23.02804 c 0,-12.665421 0.320978,-23.028039 0.713286,-23.028039 2.977714,0 27.315885,13.392995 29.88364,16.444598 l 3.185201,3.785397 3.481438,-3.726891 c 2.804741,-3.002485 27.032822,-16.503104 29.616302,-16.503104 0.37141,0 0.52226,10.474814 0.33521,23.277364 l -0.34008,23.277365 -14.648342,7.59411 c -8.056589,4.17676 -14.918568,8.2983 -15.24884,9.15897 -0.691649,1.80242 -2.033102,2.25203 19.099485,-6.40165 l 15.797697,-6.46906 0.625,-21.781049 c 0.52368,-18.249822 0.92899,-21.78105 2.5,-21.78105 1.57649,0 1.93182,3.28362 2.2319,20.625 0.19629,11.343749 0.0585,21.836799 -0.3063,23.317879 -0.43626,1.77146 -2.48309,3.34608 -5.98189,4.60187 -15.679785,5.62779 -28.80645,10.94256 -31.245087,12.65065 -3.38671,2.37215 -8.543047,2.49464 -10.993263,0.26114 z m 23.072861,-18.93974 11.971779,-6.10236 0,-17.686384 c 0,-9.727514 -0.29033,-17.976725 -0.64519,-18.331582 -1.002865,-1.002863 -22.065545,10.173485 -25.917307,13.752325 l -3.4375,3.19393 -3.4375,-3.274722 C 64.194956,86.246775 45.604091,76.250001 42.812716,76.250001 c -1.281725,0 -1.557033,3.817643 -1.284545,17.8125 l 0.346822,17.812499 10.988802,5.70034 c 6.043841,3.13519 12.732253,7.4438 14.863136,9.57467 l 3.874334,3.87434 2.852583,-3.3901 c 1.56892,-1.86456 8.239883,-6.13616 14.824363,-9.49245 z m -23.653218,-0.15871 c -1.375,-1.06558 -6.296875,-3.86726 -10.9375,-6.22597 -4.76751,-2.42319 -8.4375,-5.10509 -8.4375,-6.16583 0,-1.45306 1.765445,-0.99408 7.8125,2.03108 8.39971,4.20212 11.73657,6.69941 13.59726,10.17614 1.424116,2.66099 1.188361,2.68237 -2.03476,0.18458 z m 9.317305,-0.37528 c 1.629926,-3.04555 3.239413,-4.20841 12.840272,-9.27716 4.624169,-2.44131 8.720218,-3.93289 9.102333,-3.31461 0.746071,1.20716 -0.201653,1.85926 -14.06186,9.67549 -6.180589,3.48544 -8.680434,4.41051 -7.880745,2.91628 z m -8.464104,-9.20784 c -0.73035,-0.88002 -5.580475,-3.81723 -10.778056,-6.52713 -5.19758,-2.709904 -9.450145,-5.674614 -9.450145,-6.588246 0,-2.713643 19.390558,8.008556 21.043403,11.636156 1.542933,3.38637 1.233533,3.94779 -0.815202,1.47922 z m 8.337369,-0.50054 c 0.786138,-1.49907 2.977363,-3.81755 4.869387,-5.15219 6.097136,-4.300944 16.411805,-9.006453 17.144345,-7.82118 0.816321,1.320837 0.422191,1.595499 -10.566674,7.36368 -4.475696,2.34934 -9.203852,5.18587 -10.507015,6.3034 -2.251446,1.93072 -2.298238,1.89619 -0.940043,-0.69371 z M 65.011921,97.261147 c -1.71219,-1.388008 -5.64969,-3.82597 -8.75,-5.41769 -7.361121,-3.779248 -10.836398,-6.435652 -9.789351,-7.4827 1.334198,-1.334198 18.539816,8.246118 20.682523,11.516302 2.568286,3.9197 1.686846,4.488941 -2.143172,1.384088 z m 8.777825,1.864968 C 73.912544,96.03377 87.070661,86.79123 94.687493,84.447099 c 5.819087,-1.790867 2.581377,1.882462 -5,5.672718 -4.296875,2.148193 -9.640625,5.278667 -11.875,6.956609 -2.234375,1.677941 -4.04461,2.600301 -4.022747,2.049689 z m 56.210244,10.289305 c 0,-0.32151 4.16944,-9.18089 9.26543,-19.687495 l 9.26541,-19.102924 9.11009,18.75 c 5.01055,10.3125 9.33886,19.212009 9.61847,19.776679 0.27962,0.56468 -1.31596,0.84593 -3.54573,0.625 -3.63179,-0.35983 -4.2525,-1.02589 -5.95838,-6.39365 l -1.90425,-5.991966 -7.61301,0.366968 -7.61303,0.366969 -1.875,5.930939 c -1.63728,5.179 -2.31081,5.93177 -5.3125,5.9375 -1.89062,0.004 -3.4375,-0.2565 -3.4375,-0.57802 z m 22.5,-18.227494 c 0,-1.57793 -3.5804,-8.687925 -4.375,-8.687925 -0.7946,0 -4.375,7.109995 -4.375,8.687925 0,0.721641 1.96875,1.312075 4.375,1.312075 2.40625,0 4.375,-0.590434 4.375,-1.312075 z m 24.0362,17.975454 c -0.87383,-0.35158 -2.42071,-2.24799 -3.4375,-4.21424 -5.08525,-9.833779 2.07949,-22.449139 12.7497,-22.449139 3.04768,0 3.19277,-0.283366 2.56014,-5 -0.36886,-2.75 -0.20767,-5 0.35818,-5 0.56585,0 1.91857,-0.341431 3.00605,-0.758736 1.75093,-0.671895 1.97723,1.474137 1.97723,18.75 0,19.897125 -0.59725,22.161485 -4.75,18.008735 -1.16666,-1.16667 -1.83333,-1.16667 -3,0 -1.50635,1.50635 -6.49888,1.85631 -9.4638,0.66338 z m 10.71299,-3.98192 c 1.14044,-0.7234 1.51274,-3.60304 1.25,-9.668354 l -0.37419,-8.638105 -3.94242,-0.382742 c -2.95463,-0.286845 -4.44229,0.330928 -5.9375,2.465632 -5.45228,7.78422 1.77616,20.808409 9.00411,16.223569 z m 12.75081,-13.797723 c 0,-15.822485 0.29673,-18.730128 1.97724,-19.375 3.80518,-1.460185 4.27276,-0.701258 4.27276,6.934999 0,7.495913 0.0614,7.638134 2.38947,5.531305 3.36761,-3.047651 9.03323,-2.1335 11.00065,1.77496 0.88182,1.751843 1.58112,7.694623 1.59146,13.524439 0.0179,10.05903 -0.0731,10.38636 -2.7798,10 -2.65861,-0.37951 -2.77824,-0.8732 -2.3977,-9.895351 0.32314,-7.661104 -0.0126,-9.909112 -1.73795,-11.634389 -1.17616,-1.176161 -2.9557,-1.824875 -3.95454,-1.441586 -0.99882,0.383287 -2.33255,0.696887 -2.96382,0.696887 -0.63127,0 -1.14777,5.0625 -1.14777,11.25 0,11.166669 -0.0231,11.249999 -3.125,11.249999 l -3.125,0 0,-18.616263 z m 32.18748,17.266123 c -3.21248,-1.87109 -5.93748,-7.87772 -5.93748,-13.087784 0,-6.443666 6.61575,-13.062075 13.05682,-13.062075 11.57381,0 16.17146,16.418101 6.80477,24.299649 -4.00122,3.36681 -9.96069,4.15869 -13.92411,1.85021 z m 11.69356,-4.43275 c 2.36728,-2.85239 2.10005,-10.658605 -0.50076,-14.62794 -3.17075,-4.839185 -8.78914,-4.637636 -10.87165,0.39 -3.96148,9.563864 5.46109,21.36066 11.37241,14.23794 z m 12.36896,-7.967109 c 0,-10.8457 0.36372,-13.75 1.72195,-13.75 0.94707,0 2.43397,0.857941 3.30423,1.906535 1.4181,1.708714 1.80087,1.708714 3.68897,0 2.55488,-2.312122 6.34199,-2.455416 9.09253,-0.344035 1.5786,1.21177 2.11302,4.228048 2.38084,13.4375 0.33227,11.425739 0.24066,11.890109 -2.42159,12.274439 -2.66905,0.38531 -2.76693,0.0259 -2.76693,-10.159444 0,-12.106711 -1.22785,-14.262036 -6.89695,-12.106649 l -3.45105,1.312085 0.66068,10.589785 C 262.21873,109.9262 262.20253,110 259.23667,110 c -2.96789,0 -2.98668,-0.0865 -2.98668,-13.749999 z m 28.25668,12.125859 c -1.47771,-1.08053 -2.08065,-2.85867 -1.80141,-5.3125 0.34297,-3.01383 1.51972,-4.21371 6.43446,-6.560984 5.24265,-2.503879 5.9647,-3.306164 5.625,-6.25 -0.33794,-2.928632 -1.02399,-3.429604 -5.1634,-3.770469 -3.98624,-0.328252 -4.52801,-0.689082 -3.28444,-2.1875 1.98583,-2.392777 9.26164,-2.287305 11.71883,0.16988 1.37022,1.370228 1.96428,4.347267 1.96428,9.84375 0,4.333705 0.35157,9.637273 0.78125,11.785713 0.67333,3.3666 0.42448,3.90625 -1.80122,3.90625 -1.42036,0 -2.93106,-0.56402 -3.35711,-1.25338 -0.51782,-0.83784 -1.55108,-0.83784 -3.1166,0 -3.13953,1.68022 -5.33383,1.57852 -7.99964,-0.37076 z m 10.49332,-6.58389 c 0,-4.125853 -0.25613,-4.428554 -3.4375,-4.062496 -6.20871,0.71439 -5.07188,8.446066 1.25,8.501386 1.678,0.0147 2.1875,-1.01919 2.1875,-4.43889 z m 12.26793,-5.079071 c -0.28914,-9.777348 0.0197,-13.444703 1.16957,-13.883737 4.06722,-1.553045 4.6914,0.464854 4.29458,13.883737 C 312.37693,108.72214 312.11418,110 309.99999,110 c -2.11418,0 -2.37693,-1.27786 -2.73207,-13.287101 z m -0.60309,-19.934824 c -0.41619,-1.08456 0.19835,-2.912685 1.36563,-4.0625 1.98447,-1.95478 2.23358,-1.940591 3.83507,0.218425 0.94201,1.26995 1.40996,3.098075 1.03988,4.0625 -0.91293,2.379044 -5.30279,2.225394 -6.24058,-0.218425 z M 56.875853,69.530202 c -2.222465,-1.625106 -2.115177,-1.846467 1.948587,-4.02038 5.730476,-3.065521 18.9996,-3.131886 24.613053,-0.1231 7.437655,3.986548 3.859221,6.79281 -4.840074,3.795659 -5.607729,-1.932019 -15.342346,-1.415395 -16.767063,0.889844 -0.995527,1.610797 -2.188892,1.480244 -4.954503,-0.542021 z m -14.947287,-6.5206 c -2.315105,-1.692846 -2.296781,-1.83222 0.657474,-5.000782 1.671424,-1.792671 6.413953,-5.00758 10.538953,-7.144241 6.627286,-3.432793 8.736343,-3.890933 18.125,-3.937209 9.092457,-0.04481 11.622138,0.43735 17.538091,3.342811 3.8022,1.86735 8.58345,5.143508 10.625,7.280351 3.542356,3.707705 3.605876,3.96307 1.390506,5.590539 -2.061175,1.51419 -2.998867,1.169871 -8.36452,-3.071434 -12.468049,-9.855425 -31.692556,-9.149032 -44.509201,1.635464 -3.200865,2.693351 -3.895456,2.844334 -6.001303,1.304501 z M 26.509945,55.821105 c -2.83806,-1.575329 -2.796847,-1.655231 4.375,-8.482446 8.8585,-8.432818 20.550093,-14.306342 32.463499,-16.308739 7.65786,-1.287128 10.38903,-1.20106 18.628894,0.587059 13.160712,2.855983 19.517452,6.201787 29.177502,15.357266 l 8.22015,7.790797 -3.37158,1.538088 c -3.1441,1.434317 -3.69228,1.204817 -8.125,-3.401623 C 97.752513,42.378765 83.531703,36.870627 68.90828,37.807232 55.900979,38.640326 47.023726,42.304165 37.809855,50.64224 c -4.16794,3.771769 -7.77085,6.837829 -8.006467,6.813467 -0.235618,-0.02436 -1.717667,-0.759933 -3.293443,-1.634602 z"
       id="path8080"
       inkscape:connector-curvature="0" />
    <path
       style="fill:#cb6f5e"
       d="M 66.20535,137.08154 C 64.478226,135.50719 54.256241,131.3316 36.562493,124.97272 l -7.8125,-2.8077 0,-23.686674 c 0,-18.3927 0.349218,-23.570727 1.5625,-23.167882 1.136823,0.377458 1.73277,6.420345 2.1875,22.181218 l 0.625,21.662428 17.87333,7.16793 c 9.830331,3.94237 17.66166,6.53294 17.402952,5.75681 -0.258709,-0.77612 -7.317331,-4.98 -15.68583,-9.34195 l -15.215452,-7.93082 0,-23.02804 c 0,-12.665421 0.320978,-23.028039 0.713286,-23.028039 2.977714,0 27.315885,13.392995 29.88364,16.444598 l 3.185201,3.785397 3.481438,-3.726891 c 2.804741,-3.002485 27.032822,-16.503104 29.616302,-16.503104 0.37141,0 0.52226,10.474814 0.33521,23.277364 l -0.34008,23.277365 -14.648342,7.59411 c -8.056589,4.17676 -14.918568,8.2983 -15.24884,9.15897 -0.691649,1.80242 -2.033102,2.25203 19.099485,-6.40165 l 15.797697,-6.46906 0.625,-21.781049 c 0.52368,-18.249822 0.92899,-21.78105 2.5,-21.78105 1.57649,0 1.93182,3.28362 2.2319,20.625 0.19629,11.343749 0.0585,21.836799 -0.3063,23.317879 -0.43626,1.77146 -2.48309,3.34608 -5.98189,4.60187 -15.679785,5.62779 -28.80645,10.94256 -31.245087,12.65065 -3.38671,2.37215 -8.543047,2.49464 -10.993263,0.26114 z m 23.072861,-18.93974 11.971779,-6.10236 0,-17.686384 c 0,-9.727514 -0.29033,-17.976725 -0.64519,-18.331582 -1.002865,-1.002863 -22.065545,10.173485 -25.917307,13.752325 l -3.4375,3.19393 -3.4375,-3.274722 C 64.194956,86.246775 45.604091,76.250001 42.812716,76.250001 c -1.281725,0 -1.557033,3.817643 -1.284545,17.8125 l 0.346822,17.812499 10.988802,5.70034 c 6.043841,3.13519 12.732253,7.4438 14.863136,9.57467 l 3.874334,3.87434 2.852583,-3.3901 c 1.56892,-1.86456 8.239883,-6.13616 14.824363,-9.49245 z m 40.721779,-8.72638 c 0,-0.32151 4.16944,-9.18089 9.26543,-19.687495 l 9.26541,-19.102924 9.11009,18.75 c 5.01055,10.3125 9.33886,19.212009 9.61847,19.776679 0.27962,0.56468 -1.31596,0.84593 -3.54573,0.625 -3.63179,-0.35983 -4.2525,-1.02589 -5.95838,-6.39365 l -1.90425,-5.991966 -7.61301,0.366968 -7.61303,0.366969 -1.875,5.930939 c -1.63728,5.179 -2.31081,5.93177 -5.3125,5.9375 -1.89062,0.004 -3.4375,-0.2565 -3.4375,-0.57802 z m 22.5,-18.227494 c 0,-1.57793 -3.5804,-8.687925 -4.375,-8.687925 -0.7946,0 -4.375,7.109995 -4.375,8.687925 0,0.721641 1.96875,1.312075 4.375,1.312075 2.40625,0 4.375,-0.590434 4.375,-1.312075 z m 24.0362,17.975454 c -0.87383,-0.35158 -2.42071,-2.24799 -3.4375,-4.21424 -5.08525,-9.833779 2.07949,-22.449139 12.7497,-22.449139 3.04768,0 3.19277,-0.283366 2.56014,-5 -0.36886,-2.75 -0.20767,-5 0.35818,-5 0.56585,0 1.91857,-0.341431 3.00605,-0.758736 1.75093,-0.671895 1.97723,1.474137 1.97723,18.75 0,19.897125 -0.59725,22.161485 -4.75,18.008735 -1.16666,-1.16667 -1.83333,-1.16667 -3,0 -1.50635,1.50635 -6.49888,1.85631 -9.4638,0.66338 z m 10.71299,-3.98192 c 1.14044,-0.7234 1.51274,-3.60304 1.25,-9.668354 l -0.37419,-8.638105 -3.94242,-0.382742 c -2.95463,-0.286845 -4.44229,0.330928 -5.9375,2.465632 -5.45228,7.78422 1.77616,20.808409 9.00411,16.223569 z m 12.75081,-13.797723 c 0,-15.822485 0.29673,-18.730128 1.97724,-19.375 3.80518,-1.460185 4.27276,-0.701258 4.27276,6.934999 0,7.495913 0.0614,7.638134 2.38947,5.531305 3.36761,-3.047651 9.03323,-2.1335 11.00065,1.77496 0.88182,1.751843 1.58112,7.694623 1.59146,13.524439 0.0179,10.05903 -0.0731,10.38636 -2.7798,10 -2.65861,-0.37951 -2.77824,-0.8732 -2.3977,-9.895351 0.32314,-7.661104 -0.0126,-9.909112 -1.73795,-11.634389 -1.17616,-1.176161 -2.9557,-1.824875 -3.95454,-1.441586 -0.99882,0.383287 -2.33255,0.696887 -2.96382,0.696887 -0.63127,0 -1.14777,5.0625 -1.14777,11.25 0,11.166669 -0.0231,11.249999 -3.125,11.249999 l -3.125,0 0,-18.616263 z m 32.18748,17.266123 c -3.21248,-1.87109 -5.93748,-7.87772 -5.93748,-13.087784 0,-6.443666 6.61575,-13.062075 13.05682,-13.062075 11.57381,0 16.17146,16.418101 6.80477,24.299649 -4.00122,3.36681 -9.96069,4.15869 -13.92411,1.85021 z m 11.69356,-4.43275 c 2.36728,-2.85239 2.10005,-10.658605 -0.50076,-14.62794 -3.17075,-4.839185 -8.78914,-4.637636 -10.87165,0.39 -3.96148,9.563864 5.46109,21.36066 11.37241,14.23794 z m 12.36896,-7.967109 c 0,-10.8457 0.36372,-13.75 1.72195,-13.75 0.94707,0 2.43397,0.857941 3.30423,1.906535 1.4181,1.708714 1.80087,1.708714 3.68897,0 2.55488,-2.312122 6.34199,-2.455416 9.09253,-0.344035 1.5786,1.21177 2.11302,4.228048 2.38084,13.4375 0.33227,11.425739 0.24066,11.890109 -2.42159,12.274439 -2.66905,0.38531 -2.76693,0.0259 -2.76693,-10.159444 0,-12.106711 -1.22785,-14.262036 -6.89695,-12.106649 l -3.45105,1.312085 0.66068,10.589785 C 262.21873,109.9262 262.20253,110 259.23667,110 c -2.96789,0 -2.98668,-0.0865 -2.98668,-13.749999 z m 28.25668,12.125859 c -1.47771,-1.08053 -2.08065,-2.85867 -1.80141,-5.3125 0.34297,-3.01383 1.51972,-4.21371 6.43446,-6.560984 5.24265,-2.503879 5.9647,-3.306164 5.625,-6.25 -0.33794,-2.928632 -1.02399,-3.429604 -5.1634,-3.770469 -3.98624,-0.328252 -4.52801,-0.689082 -3.28444,-2.1875 1.98583,-2.392777 9.26164,-2.287305 11.71883,0.16988 1.37022,1.370228 1.96428,4.347267 1.96428,9.84375 0,4.333705 0.35157,9.637273 0.78125,11.785713 0.67333,3.3666 0.42448,3.90625 -1.80122,3.90625 -1.42036,0 -2.93106,-0.56402 -3.35711,-1.25338 -0.51782,-0.83784 -1.55108,-0.83784 -3.1166,0 -3.13953,1.68022 -5.33383,1.57852 -7.99964,-0.37076 z m 10.49332,-6.58389 c 0,-4.125853 -0.25613,-4.428554 -3.4375,-4.062496 -6.20871,0.71439 -5.07188,8.446066 1.25,8.501386 1.678,0.0147 2.1875,-1.01919 2.1875,-4.43889 z m 12.26793,-5.079071 c -0.28914,-9.777348 0.0197,-13.444703 1.16957,-13.883737 4.06722,-1.553045 4.6914,0.464854 4.29458,13.883737 C 312.37693,108.72214 312.11418,110 309.99999,110 c -2.11418,0 -2.37693,-1.27786 -2.73207,-13.287101 z m -0.60309,-19.934824 c -0.41619,-1.08456 0.19835,-2.912685 1.36563,-4.0625 1.98447,-1.95478 2.23358,-1.940591 3.83507,0.218425 0.94201,1.26995 1.40996,3.098075 1.03988,4.0625 -0.91293,2.379044 -5.30279,2.225394 -6.24058,-0.218425 z M 42.187493,62.798346 c -3.246764,-0.71489 -2.713159,-1.957502 2.713188,-6.318235 15.291208,-12.288349 37.344325,-12.312282 52.817475,-0.05732 5.288274,4.188393 5.791824,5.422169 2.697604,6.609535 -1.316257,0.505095 -3.771437,-0.556075 -6.663162,-2.879929 -5.10336,-4.101167 -15.559168,-7.652391 -22.530818,-7.652391 -6.573729,0 -15.85255,3.07486 -21.748974,7.207276 -2.803797,1.964999 -6.082188,3.355979 -7.285313,3.091069 z M 26.509945,55.821105 c -2.83806,-1.575329 -2.796847,-1.655231 4.375,-8.482446 8.8585,-8.432818 20.550093,-14.306342 32.463499,-16.308739 7.65786,-1.287128 10.38903,-1.20106 18.628894,0.587059 13.160712,2.855983 19.517452,6.201787 29.177502,15.357266 l 8.22015,7.790797 -3.37158,1.538088 c -3.1441,1.434317 -3.69228,1.204817 -8.125,-3.401623 C 97.752513,42.378765 83.531703,36.870627 68.90828,37.807232 55.900979,38.640326 47.023726,42.304165 37.809855,50.64224 c -4.16794,3.771769 -7.77085,6.837829 -8.006467,6.813467 -0.235618,-0.02436 -1.717667,-0.759933 -3.293443,-1.634602 z"
       id="path8078"
       inkscape:connector-curvature="0" />
    <path
       style="fill:#bb4f48"
       d="m 65.508348,136.2302 c -3.592304,-2.3019 -16.802044,-7.54106 -30.820855,-12.22399 l -5.9375,-1.98339 0,-23.47218 c 0,-20.350604 0.249357,-23.37649 1.875,-22.752671 1.566142,0.600985 1.875,4.2624 1.875,22.227543 l 0,21.508038 9.0625,3.4957 c 4.984375,1.92263 12.813032,5.12134 17.397016,7.10823 17.679219,7.66291 13.490469,2.54917 -6.773531,-8.26931 L 38.124993,114.36133 37.78365,92.180669 c -0.30076,-19.543563 -0.106082,-22.180668 1.637431,-22.180668 3.71242,0 27.147902,13.075345 29.125548,16.25 1.070692,1.71875 2.093842,3.336258 2.273666,3.59446 0.179823,0.258204 1.835398,-1.323226 3.679055,-3.514289 2.988065,-3.551113 25.86017,-16.330171 29.22793,-16.330171 0.81627,0 1.27271,8.034184 1.27271,22.402051 l 0,22.402048 -14.366162,7.14673 c -13.574274,6.75278 -18.059462,9.79021 -16.604724,11.24495 0.349449,0.34945 8.585855,-2.56313 18.303125,-6.47239 l 17.667761,-7.10777 0,-21.549071 c 0,-18.00162 0.30867,-21.667523 1.875,-22.26858 1.62565,-0.623819 1.875,2.402067 1.875,22.752671 l 0,23.47218 -5.9375,2.01084 c -12.581597,4.26098 -29.229869,10.94182 -31.863877,12.78674 -3.612452,2.53026 -5.759968,2.40886 -10.440265,-0.5902 z m 9.663171,-8.70941 c 2.05107,-2.05108 8.335926,-6.04541 13.966346,-8.8763 5.63042,-2.8309 10.940255,-5.72162 11.799625,-6.42384 1.81279,-1.48128 2.22707,-32.986955 0.4702,-35.758288 -0.82277,-1.297861 -3.823912,-0.272641 -13.679069,4.672908 -6.943777,3.484551 -13.26117,7.524147 -14.03865,8.976881 l -1.4136,2.641336 -3.325688,-3.144647 C 65.869405,86.695301 44.48941,75.000001 42.244491,75.000001 c -0.546973,0 -0.994498,8.4128 -0.994498,18.695111 l 0,18.695108 12.571053,6.45731 c 6.91408,3.55152 13.447523,7.79497 14.518763,9.4299 1.07124,1.63491 2.207535,2.97257 2.5251,2.97257 0.317565,0 2.25554,-1.67815 4.30661,-3.72921 z M 175.56818,106.93182 c -2.43425,-2.43425 -3.06819,-4.35146 -3.06819,-9.279094 0,-8.087059 4.22537,-13.549427 11.36403,-14.690947 4.67527,-0.747607 4.88597,-0.983739 4.88597,-5.475749 0,-3.643195 0.55984,-4.840851 2.5,-5.348215 2.41784,-0.632278 2.5,-0.03835 2.5,18.070866 0,17.158879 -0.18291,18.689679 -2.1875,18.306649 -1.84183,-0.35193 -2.24556,-2.08842 -2.55496,-10.989349 -0.22656,-6.51805 -0.94549,-10.938754 -1.875,-11.529534 -5.18939,-3.298278 -10.88254,1.593348 -10.88254,9.350422 0,6.610041 2.79519,10.903131 7.09894,10.903131 2.70909,0 2.96551,0.29119 1.65106,1.875 -2.28541,2.75375 -5.94826,2.29038 -9.43181,-1.19318 z m 57.0779,1.02981 c -4.5438,-3.1826 -6.72171,-9.610181 -5.18724,-15.30883 1.58609,-5.890264 4.68083,-8.798655 10.33952,-9.716934 3.61888,-0.587265 5.05921,-0.08114 8.48837,2.98282 3.58931,3.207058 4.12993,4.477091 4.12993,9.702216 0,5.321628 -0.52429,6.492598 -4.56498,10.195608 -5.04026,4.61905 -8.80131,5.23 -13.2056,2.14512 z m 11.05521,-3.19733 c 4.98735,-5.353291 2.10054,-17.414569 -4.56872,-19.088449 -7.93083,-1.990511 -11.03808,11.360953 -4.22873,18.170299 4.37599,4.37599 5.46965,4.49013 8.79745,0.91815 z m 40.91724,3.0048 c -2.77702,-3.06857 -2.67781,-5.62549 0.32365,-8.341784 2.37099,-2.145704 2.43478,-2.106206 2.1875,1.354494 -0.18846,2.6377 0.4779,3.88976 2.5625,4.81485 1.54946,0.68761 2.6304,1.81903 2.40209,2.51427 -0.74365,2.2646 -5.30574,2.056 -7.47574,-0.34183 z M 139.36108,90.63157 c 4.80484,-9.972363 9.02359,-18.108718 9.375,-18.080789 0.3514,0.02792 4.38734,8.18418 8.96875,18.125 7.92926,17.205059 8.1929,18.074219 5.48233,18.074219 -2.22325,0 -3.31848,-1.23319 -4.99573,-5.625 l -2.14821,-5.624999 -8.02641,0 -8.02642,0 -1.50445,5.624999 c -1.28223,4.79411 -1.97393,5.62597 -4.6827,5.63157 -3.14811,0.007 -3.0954,-0.16539 5.55784,-18.125 z m 13.73741,1.911301 c 0.73835,-1.194677 -3.78636,-11.29287 -5.06002,-11.29287 -1.09988,0 -5.41371,10.440598 -4.75453,11.50718 0.87159,1.410255 8.91913,1.23453 9.81455,-0.21431 z m 47.5265,-1.834025 c 0,-17.046176 0.13754,-18.064874 2.5,-18.515925 2.40897,-0.459931 2.5,0.196919 2.5,18.038995 0,17.683094 -0.1125,18.516284 -2.5,18.515924 -2.38448,-3.6e-4 -2.5,-0.83384 -2.5,-18.038994 z m 15.625,8.291155 c 0,-10.226267 -1.0922,-12.75 -5.51786,-12.75 -2.36891,0 -2.39225,-0.125596 -0.39464,-2.123211 1.67184,-1.671839 2.85817,-1.86581 5.58035,-0.912421 3.39172,1.187871 3.46898,1.441048 4.08215,13.376041 0.5647,10.99145 0.41394,12.16498 -1.5625,12.16242 -1.89612,-0.002 -2.1875,-1.30153 -2.1875,-9.752829 z m 40,-2.75 c 0,-11.485507 0.19445,-12.5 2.39584,-12.5 3.17409,0 3.29516,0.587465 2.82795,13.721469 -0.36171,10.16823 -0.63859,11.27853 -2.8125,11.27853 -2.22096,0 -2.41129,-0.98662 -2.41129,-12.499999 z m 16.25,3.363913 c 0,-9.992744 -1.33728,-12.915789 -6.25,-13.661255 l -3.125,-0.474195 3.3863,-1.666545 c 2.91962,-1.436872 3.82402,-1.379737 6.5625,0.414585 3.01118,1.972997 3.1762,2.664165 3.1762,13.302313 0,9.141053 -0.34757,11.221183 -1.875,11.221183 -1.49563,0 -1.875,-1.84845 -1.875,-9.136086 z m 23.58988,8.198586 c -0.0881,-0.51562 -0.2287,-2.89544 -0.3125,-5.28849 -0.133,-3.797674 -0.62925,-4.440475 -3.90238,-5.054731 l -3.75,-0.703752 3.29963,-0.871973 c 6.57186,-1.73671 5.36774,-9.643553 -1.4686,-9.643553 -3.97068,0 -4.9787,-1.744156 -1.72879,-2.991264 3.59838,-1.380826 6.74076,-0.790741 9.27276,1.741264 2.10784,2.107844 2.5,4.166666 2.5,13.125 0,8.611109 -0.35538,10.624999 -1.875,10.624999 -1.03125,0 -1.94706,-0.42187 -2.03512,-0.9375 z m 11.41012,-11.562499 c 0,-11.666666 0.16667,-12.5 2.5,-12.5 2.33334,0 2.5,0.833334 2.5,12.5 0,11.666669 -0.16666,12.499999 -2.5,12.499999 -2.33333,0 -2.5,-0.83333 -2.5,-12.499999 z m -0.35206,-19.11449 c -0.36665,-0.95547 -0.21295,-2.471301 0.34156,-3.368511 1.40219,-2.268806 5.29005,-0.516708 4.77603,2.152366 -0.51968,2.698464 -4.21206,3.575923 -5.11759,1.216145 z M 26.451738,55.151139 c -2.244535,-1.422683 8.60567,-12.320057 16.87842,-16.951797 16.603932,-9.296195 39.302587,-9.258495 56.006102,0.09302 7.60777,4.259237 18.73997,14.763989 17.6002,16.60819 -1.60525,2.597335 -4.71678,1.299577 -11.60588,-4.84058 -17.94553,-15.994595 -43.210176,-17.47667 -63.455587,-3.722436 -2.75,1.868283 -6.363677,4.862883 -8.030393,6.654669 -3.206915,3.44756 -4.680771,3.877969 -7.392862,2.158929 z"
       id="path8076"
       inkscape:connector-curvature="0" />
    <path
       style="fill:#b6423b"
       d="m 66.249993,136.55514 c 0,-1.08076 -3.90945,-2.91528 -13.75,-6.45221 -3.78125,-1.35908 -10.53125,-3.84402 -15,-5.52209 l -8.125,-3.05103 -0.341138,-22.753615 c -0.269602,-17.982186 -0.0075,-22.642649 1.25,-22.224431 1.187109,0.394813 1.677863,5.94981 1.932674,21.876552 l 0.341535,21.347364 3.408465,1.27629 c 1.874655,0.70197 10.11898,4.06204 18.320721,7.46686 l 14.912258,6.19056 5.088051,-5.31036 c 3.087934,-3.22285 9.633159,-7.59305 16.650242,-11.11724 l 11.562189,-5.80688 0,-18.737454 c 0,-15.985154 -0.28091,-18.737455 -1.91242,-18.737455 -2.558789,0 -23.036794,10.768666 -26.293141,13.826641 -4.311394,4.048749 -4.430804,2.707863 -0.168208,-1.888857 3.578922,-3.859455 26.483549,-16.937784 29.663849,-16.937784 0.82202,0 1.14762,7.799325 0.92627,22.1875 l -0.34135,22.187499 -12.09964,6.25 c -12.888164,6.65731 -19.775357,11.22209 -19.775357,13.10698 0,1.28703 3.124405,0.2096 23.125,-7.97454 l 13.749997,-5.62643 0.625,-21.525878 c 0.45444,-15.651537 1.0514,-21.667451 2.1875,-22.044668 1.2124,-0.402552 1.5625,4.663816 1.5625,22.611051 l 0,23.129845 -4.0625,0.8899 c -5.32244,1.16589 -21.16215,7.26377 -29.08231,11.19593 -5.934584,2.94637 -14.355187,4.21807 -14.355187,2.16795 z m -0.625,-7.86349 c -2.0625,-1.39804 -8.953125,-5.08314 -15.3125,-8.18913 l -11.5625,-5.64723 0,-22.427646 c 0,-12.335204 0.293736,-22.427643 0.652746,-22.427643 0.359011,0 5.280886,2.310858 10.9375,5.135239 11.356406,5.670321 18.409754,10.506242 18.409754,12.62211 0,0.826157 -0.878035,0.635796 -2.1875,-0.474258 -4.152814,-3.520405 -22.973503,-12.488781 -24.765439,-11.80115 -1.443281,0.553839 -1.797061,4.104335 -1.797061,18.035094 0,19.950064 -0.70969,18.586464 13.125,25.218444 9.778718,4.68766 15.183973,8.31225 16.149997,10.82966 0.82565,2.15161 0.805934,2.1469 -3.649997,-0.87349 z M 131.45833,107.8125 c 0.40784,-0.91764 6.51406,-13.608443 13.63104,-28.329906 l 3.5738,-7.392407 2.38402,5.517407 c 1.31122,3.034573 4.987,10.921771 8.16842,17.527105 3.18141,6.605331 5.78438,12.370961 5.78438,12.812501 0,0.44154 -1.09951,0.8028 -2.44336,0.8028 -1.80596,0 -2.65896,-1.14926 -3.26985,-4.40558 -1.06271,-5.664744 -4.63825,-8.094419 -11.91186,-8.094419 -6.64739,0 -8.41638,1.496281 -9.47396,8.013459 -0.6055,3.73122 -1.24418,4.48654 -3.79369,4.48654 -1.68609,0 -2.87811,-0.42187 -2.64894,-0.9375 z m 22.29166,-15.89509 c 0,-2.971619 -4.08827,-10.667409 -5.6669,-10.667409 -1.67945,0 -5.8469,9.811891 -4.85151,11.422458 0.36628,0.592648 2.88276,1.077542 5.59219,1.077542 3.49486,0 4.92622,-0.532475 4.92622,-1.832591 z m 21.25,14.33259 c -3.28083,-3.28083 -3.32656,-11.754124 -0.0921,-17.058631 2.32606,-3.814697 9.06315,-7.208777 12.75844,-6.427579 1.21037,0.255877 1.73222,-1.096404 1.78951,-4.637246 0.0534,-3.300579 0.69031,-5.116149 1.875,-5.344935 1.50097,-0.289864 1.7509,2.566653 1.52961,17.482462 -0.16292,10.981189 -0.76305,17.995119 -1.5625,18.261599 -1.49582,0.49861 -1.54996,0.0254 -1.30636,-11.4184 0.20437,-9.598796 -1.10203,-12.107269 -6.30535,-12.107269 -5.65844,0 -7.60766,2.996966 -7.18171,11.04199 0.33811,6.386009 0.74162,7.246939 4.61783,9.852729 l 4.24737,2.85528 -3.93487,0 c -2.26818,0 -4.99376,-1.05891 -6.43485,-2.5 z m 26.875,-15.625786 c 0,-13.666562 0.38433,-18.124644 1.5625,-18.124459 1.17815,1.86e-4 1.5625,4.458711 1.5625,18.125246 0,13.666959 -0.38431,18.124869 -1.5625,18.124459 -1.17813,-4.1e-4 -1.5625,-4.4591 -1.5625,-18.125246 z m 14.11117,7.197532 -0.36117,-10.928255 -3.75,-0.686095 -3.75,-0.686094 2.89633,-1.599491 c 2.42511,-1.33927 3.39109,-1.275306 5.9375,0.393166 2.84774,1.865909 3.04117,2.706408 3.04117,13.21384 0,9.008163 -0.36018,11.221183 -1.82633,11.221183 -1.43497,0 -1.90373,-2.3418 -2.1875,-10.928254 z m 15.32357,8.727984 c -6.67896,-5.4083 -3.90317,-20.087398 4.3111,-22.798356 8.48561,-2.800502 15.13931,3.639157 14.02008,13.569048 -1.10999,9.847678 -11.25789,14.956908 -18.33118,9.229308 z m 12.95314,-1.75752 c 4.90449,-5.728016 1.677,-17.631225 -5.25215,-19.370333 -7.38899,-1.854515 -10.98583,12.716658 -4.69254,19.009943 3.7855,3.7855 6.91491,3.89891 9.94469,0.36039 z m 12.61212,-8.542209 c 0,-9.166666 0.41667,-12.5 1.5625,-12.5 0.85938,0 1.59118,0.421875 1.62622,0.9375 0.035,0.515625 0.17567,6.140846 0.3125,12.500493 0.2056,9.555636 -0.0768,11.562906 -1.62622,11.562496 -1.54163,-4e-4 -1.875,-2.22293 -1.875,-12.500489 z m 15.625,2.653056 c 0,-10.158736 -0.76463,-11.910365 -5.625,-12.885727 -2.37878,-0.477368 -2.35957,-0.579108 0.39633,-2.09835 2.42331,-1.335903 3.39299,-1.271231 5.9375,0.395997 2.84774,1.865909 3.04117,2.706408 3.04117,13.21384 0,9.141053 -0.34757,11.221183 -1.875,11.221183 -1.50798,0 -1.875,-1.92744 -1.875,-9.846943 z m 11.25,7.346943 c -0.98088,-1.8328 -0.91655,-3.2506 0.24105,-5.3125 l 1.579,-2.812499 0.43533,3.124999 c 0.23942,1.71875 1.65804,4.09687 3.15247,5.28471 l 2.71715,2.1597 -3.39352,0.0278 c -2.13394,0.0175 -3.89013,-0.90014 -4.73148,-2.47221 z m 12.5,-3.02083 c 0,-5.404536 -0.19477,-5.732005 -3.4375,-5.779216 l -3.4375,-0.05005 3.4375,-1.864875 c 5.75949,-3.124575 3.92735,-9.701698 -2.70252,-9.701698 -4.5163,0 -5.11453,-1.497442 -1.00979,-2.527665 3.96586,-0.99537 8.20575,0.322676 8.90021,2.766795 0.32077,1.128895 0.76127,6.504058 0.9789,11.944808 0.28375,7.093681 -0.0464,10.040621 -1.1668,10.416661 -1.099,0.36885 -1.5625,-1.17508 -1.5625,-5.20476 z m 12.08537,4.58333 c -0.3092,-0.51562 -0.63962,-6.14062 -0.73425,-12.499999 -0.15347,-10.31244 0.0682,-11.562795 2.05091,-11.565224 2.00897,-0.0025 2.1849,1.200887 1.82746,12.5 -0.34944,11.045853 -1.31836,14.609903 -3.14412,11.565223 z m -0.41558,-31.02152 c -1.05481,-2.748811 1.80796,-5.504033 3.26661,-3.143885 1.22268,1.978339 0.39033,5.102906 -1.35936,5.102906 -0.63552,0 -1.49379,-0.88156 -1.90725,-1.959021 z M 26.736555,54.776005 c -1.344914,-2.176116 11.56778,-13.65302 20.005916,-17.781415 21.284065,-10.413324 47.713498,-5.93147 64.599659,10.954686 5.9494,5.949401 6.19465,6.435285 3.78985,7.508338 -2.12394,0.947728 -3.50058,0.213108 -7.91409,-4.223239 -2.98679,-3.002238 -9.477086,-7.344171 -14.717897,-9.846099 -8.726899,-4.166164 -10.195928,-4.474841 -21.25,-4.465124 -10.71201,0.0094 -12.69807,0.397475 -20.279162,3.962369 -4.62229,2.173561 -11.149373,6.519754 -14.504631,9.658205 -6.33086,5.921779 -8.186587,6.728998 -9.729645,4.232279 z"
       id="path8074"
       inkscape:connector-curvature="0" />
    <path
       style="fill:#b0342d"
       d="m 64.999993,134.85585 c -2.25588,-1.86864 -2.484319,-2.3809 -0.821374,-1.84187 6.049197,1.96076 8.243416,2.00057 13.347181,0.24218 6.34774,-2.18697 8.12968,-1.84873 2.514274,0.47724 -2.084545,0.86345 -3.790081,2.06416 -3.790081,2.66825 0,2.13131 -8.165324,1.00936 -11.25,-1.5458 z m -19.375,-7.49986 c -5.5,-2.08946 -11.546875,-4.38634 -13.4375,-5.10416 l -3.4375,-1.30513 0,-22.348349 c 0,-14.065566 0.463277,-22.34835 1.25,-22.34835 0.783957,0 1.25,7.865648 1.25,21.096944 0,15.385655 0.422993,21.431225 1.5625,22.331755 0.859375,0.67914 5.5,2.78213 10.3125,4.6733 9.574821,3.76261 15.70899,6.79645 13.75,6.80046 -0.6875,0.001 -5.75,-1.707 -11.25,-3.79647 z m 39.375,3.46252 c 0,-0.32997 4.078125,-2.15226 9.0625,-4.04953 4.984375,-1.89728 10.749997,-4.38479 12.812497,-5.52782 l 3.75,-2.07824 0.34202,-21.456456 c 0.21085,-13.227613 0.8209,-21.456463 1.5907,-21.456463 0.79825,0 1.12578,8.191761 0.90798,22.70942 l -0.3407,22.709419 -3.75,1.18872 c -2.0625,0.65379 -7.125,2.47735 -11.249997,4.05237 -9.276158,3.54181 -13.125,4.68798 -13.125,3.90858 z m -19.397957,-2.10565 c -0.437523,-0.70793 -6.401272,-4.10025 -13.252775,-7.5385 -6.851501,-3.43824 -12.728368,-6.95781 -13.059705,-7.82126 -0.331335,-0.86344 -0.447658,-10.95123 -0.258496,-22.4173 l 0.343933,-20.847401 12.5,6.326668 c 12.32681,6.23901 17.467037,9.659564 16.287871,10.83873 -0.331351,0.33135 -1.426661,-0.08158 -2.434023,-0.917608 -3.85639,-3.20052 -23.828217,-12.486819 -24.78893,-11.526107 -0.55507,0.55507 -0.853001,9.324605 -0.662068,19.487855 l 0.34715,18.478633 11.791167,6.06261 C 63.546469,124.56199 71.06722,130 67.851541,130 c -0.799703,0 -1.81198,-0.57921 -2.249505,-1.28714 z m 11.272957,-1.88073 c 2.0625,-1.69289 8.655397,-5.46954 14.650882,-8.39256 l 10.900885,-5.31457 0.0366,-18.988728 c 0.0201,-10.443801 -0.42969,-19.276918 -0.99961,-19.629151 -0.92168,-0.569629 -16.295927,6.383296 -19.652431,8.887713 -0.722509,0.539092 -2.529821,1.675061 -4.01625,2.524376 -3.749841,2.142584 -2.565653,-0.927165 1.291541,-3.348035 3.011385,-1.890019 18.900689,-10.07091 22.47586,-11.572099 2.03611,-0.854944 2.1875,0.631118 2.1875,21.471869 l 0,22.390385 -13.029961,6.28493 c -7.166479,3.45671 -13.387176,6.8629 -13.823771,7.56933 -0.436594,0.70642 -1.463735,1.26419 -2.282537,1.23946 -0.818801,-0.0247 0.198772,-1.43005 2.261272,-3.12292 z M 178.08159,107.5606 c -4.56647,-1.85098 -5.94848,-4.6901 -5.25932,-10.804394 0.99915,-8.864381 3.42772,-10.012251 3.42772,-1.620117 0,7.065931 1.25438,9.779951 5.625,12.170501 2.99818,1.63987 0.10375,1.83368 -3.7934,0.25401 z m 54.77065,-0.31848 c -3.43101,-1.65649 -5.88011,-8.665284 -4.84188,-13.856425 1.24207,-6.210358 5.30837,-9.635694 11.43876,-9.635694 5.80309,0 8.34462,2.459821 9.70539,9.393334 0.86327,4.398689 -1.53275,12.049355 -4.02967,12.866995 -1.34788,0.44138 -1.27605,-0.10377 0.3125,-2.37174 3.06453,-4.375236 2.59325,-10.316195 -1.17346,-14.792683 -8.37065,-9.947947 -18.75795,1.732875 -12.07639,13.580253 1.273,2.25721 3.75522,4.34271 5.9375,4.98856 3.45839,1.02351 3.50699,1.112 0.625,1.13794 -1.71875,0.0155 -4.37273,-0.57427 -5.89775,-1.31054 z m 53.08525,0.15776 c -2.37561,-1.38367 -2.94956,-5.53135 -0.9375,-6.77488 0.70105,-0.43327 1.25,0.54835 1.25,2.23521 0,1.88392 1.05088,3.51458 2.8125,4.36417 1.6988,0.8193 2.07004,1.37487 0.9375,1.40301 -1.03125,0.0256 -2.85937,-0.52676 -4.0625,-1.22751 z M 132.71456,106.5625 c 0.2326,-0.51562 1.23622,-3.04687 2.23028,-5.625 0.99405,-2.578124 2.25688,-4.687499 2.80627,-4.687499 0.54938,0 0.99888,-0.532059 0.99888,-1.182351 0,-0.650294 2.19038,-5.827431 4.8675,-11.504751 l 4.86749,-10.322399 5.22989,11.192251 c 2.87642,6.155738 6.59772,13.864125 8.26952,17.129749 2.76829,5.40741 2.83985,5.9375 0.80159,5.9375 -1.51162,0 -2.83416,-1.72437 -4.07452,-5.3125 l -1.83647,-5.312499 -8.74441,0 -8.7444,0 -1.1207,5.312499 c -0.8524,4.04071 -1.7016,5.3125 -3.54726,5.3125 -1.3346,0 -2.23625,-0.42187 -2.00366,-0.9375 z m 20.5485,-16.809656 c -0.84904,-4.245199 -3.96383,-9.772518 -5.47938,-9.723383 -1.26791,0.04111 -6.45554,12.132025 -5.58064,13.006924 0.39249,0.392489 3.22143,0.713616 6.28654,0.713616 l 5.57291,0 -0.79943,-3.997157 z m 36.73693,7.145972 c 0,-11.57911 0.74048,-10.455391 -8.125,-12.330145 -1.375,-0.290766 -0.10937,-0.593917 2.8125,-0.673669 l 5.3125,-0.145001 0,-5 c 0,-2.75 0.5625,-5 1.25,-5 0.7716,0 1.25,6.458334 1.25,16.875 0,10.416669 -0.4784,16.874999 -1.25,16.874999 -0.73507,0 -1.25,-4.36706 -1.25,-10.601184 z m 12.25515,-6.262414 c -0.23552,-10.447892 0.0954,-17.045193 0.86985,-17.340921 0.7962,-0.304034 1.25,5.81731 1.25,16.861219 0,9.536199 -0.39143,17.33961 -0.86985,17.34092 -0.47842,0.001 -1.04092,-7.586238 -1.25,-16.861218 z m 15.03423,8.84939 c 0.45976,-8.89804 -1.12426,-13.235791 -4.83335,-13.235791 -1.35081,0 -2.45603,-0.5625 -2.45603,-1.25 0,-2.355997 7.34762,-1.370391 8.70603,1.167824 1.91759,3.583054 1.6942,21.331505 -0.26853,21.334795 -1.13088,0.002 -1.44803,-2.21263 -1.14812,-8.016828 z m 39.9839,-3.863593 c -0.29784,-8.882399 -0.004,-11.877097 1.16422,-11.875 1.14015,0.002 1.5625,3.212631 1.5625,11.877802 0,6.531249 -0.5239,11.874999 -1.16422,11.874999 -0.64033,0 -1.34345,-5.34501 -1.5625,-11.877801 z m 14.96477,1.565302 c -0.3603,-10.234495 -0.38921,-10.315507 -3.82173,-10.710072 -4.04788,-0.465299 -3.35224,-2.727428 0.83872,-2.727428 5.20154,0 6.99496,3.630699 6.99496,14.160926 0,7.572203 -0.38373,9.589073 -1.82445,9.589073 -1.42248,0 -1.90442,-2.27199 -2.1875,-10.312499 z m 24.78353,6.767109 c 0.47824,-2.39116 0.032,-4.222413 -1.37054,-5.624996 -1.83757,-1.837577 -1.86395,-2.295275 -0.2266,-3.932624 3.74566,-3.745664 -1.31115,-10.437335 -6.80222,-9.001385 -1.30472,0.341191 -2.37222,0.110509 -2.37222,-0.512629 0,-1.682092 9.25985,-1.37313 11,0.367025 1.82759,1.827584 2.08574,22.249999 0.28125,22.249999 -0.67187,0 -0.90057,-1.59089 -0.50967,-3.54539 z m 11.72842,-8.329609 c 0,-7.083334 0.50439,-11.875 1.25,-11.875 0.74562,0 1.25,4.791666 1.25,11.875 0,7.083329 -0.50438,11.874999 -1.25,11.874999 -0.74561,0 -1.25,-4.79167 -1.25,-11.874999 z m -0.625,-19.375 c -1.01938,-1.649394 0.47527,-3.990086 1.96138,-3.071619 1.51826,0.938343 1.5084,4.321619 -0.0126,4.321619 -0.64693,0 -1.52388,-0.5625 -1.94878,-1.25 z M 27.516314,55.036541 c -1.507828,-0.953347 -0.63204,-2.357501 4.639597,-7.438685 21.639222,-20.857436 54.84206,-21.166264 77.581439,-0.721604 6.79601,6.110197 7.68016,7.754192 4.77069,8.87066 -1.00244,0.384674 -4.31906,-1.841357 -7.8125,-5.243555 -3.3388,-3.251601 -9.726797,-7.648182 -14.195547,-9.77018 -7.476948,-3.550447 -9.171854,-3.858081 -21.25,-3.85698 -12.392998,0.0011 -13.590465,0.234757 -21.470898,4.189 -4.590244,2.303293 -10.928246,6.66213 -14.084449,9.686305 -3.156203,3.024174 -5.8693,5.489885 -6.029102,5.479358 -0.159804,-0.0105 -1.126956,-0.547971 -2.14923,-1.194319 z"
       id="path8072"
       inkscape:connector-curvature="0" />
  </g>
</svg>
